<?xml version="1.0" encoding="utf-8"?>
<!-- Generator: Adobe Illustrator 23.0.6, SVG Export Plug-In . SVG Version: 6.00 Build 0)  -->
<svg version="1.1" id="Calque_1" xmlns="http://www.w3.org/2000/svg" xmlns:xlink="http://www.w3.org/1999/xlink" x="0px" y="0px"
	 viewBox="0 0 922 200" style="enable-background:new 0 0 922 200;" xml:space="preserve">
<style type="text/css">
	.st0{fill:#FFFFFF;}
</style>
<g>
	<path class="st0" d="M488.8,70.9v25l56.7,0l-3.4,16.2h-53.2v35.8H463V54.6h91.3l-3.5,16.3H488.8z M803,147.9h-29.7l-8.9-18.9h-49.8
		l-8.6,18.9h-18.7l43.9-93.3c0,0,11.7,0,17.5,0c6.6,0,9.1,2.7,12.5,9.7C764.4,70.9,803,147.9,803,147.9z M756.7,112.8l-17.6-37.2
		l-17,37.2H756.7z M450.2,147.9h-29.7l-8.9-18.9h-49.8l-8.6,18.9h-18.7l44-93.3c0,0,11.7,0,17.5,0c6.6,0,9.1,2.7,12.5,9.7
		C411.5,70.9,450.2,147.9,450.2,147.9z M403.8,112.8l-17.6-37.2l-17,37.2H403.8z M280,150.9c33.4,0,48.8-12.2,48.8-30
		c0-15.5-14-23.4-44.7-31.8c-18.3-5-29.7-6-29.7-12.2c0-5.9,10.7-9.1,27.1-8.3c20.6,1,33.7,9.7,33.7,9.7l8.1-12.9
		c0,0-18.5-13.7-47.9-13.7c-32.1,0-49,9.8-49,27.8c0,17.8,19.2,23.9,47.2,31.9c17.2,4.9,27.2,5.8,27.2,12.4
		c0,5.1-5.2,11.4-28.1,10.3c-22-1.1-41.1-13.8-41.1-13.8l-9.8,11.9C221.9,132.1,242.8,150.9,280,150.9z M902.5,54.6v55.7
		c0,0-54.7-43.6-59.2-47.2c-8.1-6.4-11.8-8.5-20.8-8.5c-3.8,0-6.7,0-6.7,0v93.3H835V93.1c0,0,54.2,43.3,58.7,46.8
		c8.1,6.4,12.2,8,21.2,8c3.8,0,6.7,0,6.7,0V54.6H902.5z M677.4,147.9c0,0-6.7,0-17.5,0c-10.4,0-16.7-7.2-20.5-12.2
		c-4.2-5.5-14.7-19.4-14.7-19.4s-1.2,0-1.8,0c-7,0-26.3,0-26.3,0h-0.3v31.6h-25.9V54.6h26.2c0,0,19.2,0,26.3,0
		c20.1,0,49,2.1,49,30.9v0c0,16.7-9.8,24.4-21.9,27.9L677.4,147.9z M643.8,85.5L643.8,85.5c0-9.8-6.2-14.6-19.9-14.6h-27.3l-0.3-0.2
		v29.6l0.3-0.2h27.3C637.6,100.1,643.8,95.3,643.8,85.5z"/>
	<path class="st0" d="M175,141.5h-2.1c-19.2,26.3-50.2,43.4-85.2,43.4c-35,0-66.1-17.1-85.2-43.4H0.4c15.5,32.6,48.8,55.2,87.3,55.2
		C126.2,196.6,159.5,174.1,175,141.5z"/>
	<path id="_x3C_Tracé_x3E__7_" class="st0" d="M156.9,151.9c4.7-5.2,8.9-12.4,9.8-17.6c4.5-23.8-17.6-35.9-43.7-45
		c-20.4-7.1-37.2-12-51.5-16.4c-22.7-7-26.6-13.7-26.4-20.9c0.2-8.4,9.1-19,19.2-25.3c0,0-19-0.1-38.3,14.3
		C14.7,49.5,10,58.3,8.3,66.3c-8.1,39.8,70.5,55.6,100.7,65.4c16.5,5.4,18.7,12.6,18.6,18.3c-0.3,13.3-19.1,25.3-19.2,25.3
		C123.7,175,144.4,165.9,156.9,151.9"/>
	<path class="st0" d="M175,58.5h-2.1c-19.2-26.3-50.2-43.4-85.2-43.4c-35,0-66.1,17.1-85.2,43.4H0.4C15.9,25.9,49.2,3.4,87.7,3.4
		C126.2,3.4,159.5,25.9,175,58.5z"/>
</g>
</svg>
